<svg width="1920" height="904" viewBox="0 0 1920 904" fill="none" xmlns="http://www.w3.org/2000/svg">
<g clip-path="url(#clip0)">
<rect width="1920" height="904" fill="white"/>
<path d="M1920 0H0V904H1920V0Z" fill="#F1C517"/>
<path d="M0 881.336C144.869 908.399 303.123 899.307 425.871 802.302C548.348 705.511 627.821 536.519 656.147 362.793C681.908 204.79 598.693 58.2709 572.943 -99.7354C548.909 -247.202 593.9 -424.254 509.848 -534.876C425.803 -645.49 274.959 -600.508 156.964 -647.212C33.8547 -695.941 -68.5186 -827.294 -197.636 -814.916C-334.801 -801.766 -479.917 -721.035 -552.127 -579.232C-623.128 -439.801 -572.343 -261.342 -562.727 -97.9564C-555.085 31.8708 -536.54 154.268 -501.711 277.404C-463.227 413.459 -433.264 556.142 -349.029 657.539C-253.739 772.244 -132.801 856.526 0 881.336Z" fill="#DDAE39"/>
<path d="M1920 1759.76C2051.27 1752.71 2123.58 1571.16 2211.22 1452.64C2277.95 1362.4 2312.95 1252.54 2369.15 1152.34C2439.74 1026.49 2577.49 940.391 2583.75 788.457C2590.02 636.458 2487.39 509.851 2400.15 400.281C2316.19 294.838 2211.63 221.183 2096.45 176.42C1979.05 130.794 1851.75 93.2459 1735.16 141.849C1620.39 189.695 1556.94 328.817 1473.87 435.965C1386.9 548.123 1272.35 637.443 1236.48 785.017C1198.51 941.253 1199.95 1125.03 1273.19 1261.63C1344.59 1394.8 1501.03 1399.63 1611.68 1484.84C1721.61 1569.5 1789.85 1766.75 1920 1759.76Z" fill="#DDAE39"/>
</g>
<defs>
<clipPath id="clip0">
<rect width="1920" height="904" fill="white"/>
</clipPath>
</defs>
</svg>
